<?xml version="1.0" encoding="UTF-8"?>
<svg width="209px" height="190px" viewBox="0 0 209 190" version="1.1" xmlns="http://www.w3.org/2000/svg" xmlns:xlink="http://www.w3.org/1999/xlink">
    <title>languages</title>
    <g id="languages" stroke="none" stroke-width="1" fill="none" fill-rule="evenodd">
        <rect id="Rectangle" fill="#F9FAFB" x="0" y="0" width="209" height="190" rx="3"></rect>
        <g id="Group" transform="translate(20.001500, 34.904621)">
            <polygon id="Fill-1" fill="#D0D7DE" points="0 0.9895 169 0.9895 169 0.0105 0 0.0105"></polygon>
            <polygon id="Fill-7" fill="#FF9A0B" points="4.26325641e-14 0.9895 165.646736 0.9895 165.646736 0.0105 4.26325641e-14 0.0105"></polygon>
        </g>
        <g id="Group-2" transform="translate(20.001500, 57.904621)">
            <polygon id="Fill-2" fill="#D0D7DE" points="0 0.9895 169 0.9895 169 0.0105 0 0.0105"></polygon>
            <polygon id="Fill-8" fill="#FF9A0B" points="0 0.9895 148.723068 0.9895 148.723068 0.0105 0 0.0105"></polygon>
        </g>
        <g id="Group-3" transform="translate(20.001500, 80.904621)">
            <polygon id="Fill-3" fill="#D0D7DE" points="0 0.9895 169 0.9895 169 0.0105 0 0.0105"></polygon>
            <polygon id="Fill-9" fill="#FF9A0B" points="4.38760139e-13 0.9895 17.1180415 0.9895 17.1180415 0.0105 4.38760139e-13 0.0105"></polygon>
        </g>
        <g id="Group-4" transform="translate(20.001500, 103.904621)">
            <polygon id="Fill-4" fill="#D0D7DE" points="0 0.9895 169 0.9895 169 0.0105 0 0.0105"></polygon>
            <polygon id="Fill-10" fill="#FF9A0B" points="0 0.9895 162.237937 0.9895 162.237937 0.0105 0 0.0105"></polygon>
        </g>
        <g id="Group-5" transform="translate(20.001500, 126.904621)">
            <polygon id="Fill-5" fill="#D0D7DE" points="0 0.9895 169 0.9895 169 0.0105 0 0.0105"></polygon>
            <polygon id="Fill-11" fill="#FF9A0B" points="4.8316906e-13 0.9895 154.273936 0.9895 154.273936 0.0105 4.8316906e-13 0.0105"></polygon>
        </g>
        <g id="Group-6" transform="translate(20.001500, 149.904621)">
            <polygon id="Fill-6" fill="#D0D7DE" points="0 0.9895 169 0.9895 169 0.0105 0 0.0105"></polygon>
            <polygon id="Fill-12" fill="#FF9A0B" points="4.33431069e-13 0.9895 38.2650241 0.9895 38.2650241 0.0105 4.33431069e-13 0.0105"></polygon>
        </g>
        <text id="Serbian" font-family="Helvetica" font-size="10" font-weight="normal" fill="#001432">
            <tspan x="20" y="27.9046215">Serbian</tspan>
        </text>
        <text id="English" font-family="Helvetica" font-size="10" font-weight="normal" fill="#001432">
            <tspan x="20" y="50.9046215">English</tspan>
        </text>
        <text id="Swedish" font-family="Helvetica" font-size="10" font-weight="normal" fill="#001432">
            <tspan x="20" y="73.9046215">Swedish</tspan>
        </text>
        <text id="HTML" font-family="Helvetica" font-size="10" font-weight="normal" fill="#001432">
            <tspan x="20" y="96.9046215">HTML</tspan>
        </text>
        <text id="CSS" font-family="Helvetica" font-size="10" font-weight="normal" fill="#001432">
            <tspan x="20" y="119.904621">CSS</tspan>
        </text>
        <text id="JavaScript" font-family="Helvetica" font-size="10" font-weight="normal" fill="#001432">
            <tspan x="20" y="142.904621">JavaScript</tspan>
        </text>
    </g>
</svg>