<?xml version="1.0" encoding="UTF-8"?>
<svg width="209px" height="159px" viewBox="0 0 209 159" version="1.1" xmlns="http://www.w3.org/2000/svg" xmlns:xlink="http://www.w3.org/1999/xlink">
    <title>skills</title>
    <g id="skills" stroke="none" stroke-width="1" fill="none" fill-rule="evenodd">
        <rect id="Rectangle" fill="#F9FAFB" x="0" y="0" width="209" height="158" rx="3"></rect>
        <g id="Group-2" transform="translate(20.001600, 33.367500)">
            <polygon id="Fill-1" fill="#D0D7DE" points="1.13686838e-13 0.9895 169 0.9895 169 0.0105 1.13686838e-13 0.0105"></polygon>
            <polygon id="Fill-2" fill="#D0D7DE" points="1.13686838e-13 17.9895 169 17.9895 169 17.0105 1.13686838e-13 17.0105"></polygon>
            <polygon id="Fill-3" fill="#D0D7DE" points="1.13686838e-13 34.9895 169 34.9895 169 34.0105 1.13686838e-13 34.0105"></polygon>
            <polygon id="Fill-4" fill="#D0D7DE" points="1.13686838e-13 51.9895 169 51.9895 169 51.0105 1.13686838e-13 51.0105"></polygon>
            <polygon id="Fill-5" fill="#D0D7DE" points="1.13686838e-13 68.9895 169 68.9895 169 68.0105 1.13686838e-13 68.0105"></polygon>
            <polygon id="Fill-6" fill="#D0D7DE" points="1.13686838e-13 85.9895 169 85.9895 169 85.0105 1.13686838e-13 85.0105"></polygon>
            <polygon id="Fill-7" fill="#D0D7DE" points="1.13686838e-13 104.6145 169 104.6145 169 103.6355 1.13686838e-13 103.6355"></polygon>
            <polygon id="Fill-8" fill="#FF9A0B" points="2.27373675e-13 0.9895 139.862343 0.9895 139.862343 0.0105 2.27373675e-13 0.0105"></polygon>
            <polygon id="Fill-9" fill="#FF9A0B" points="0 17.9895 164.653681 17.9895 164.653681 17.0105 0 17.0105"></polygon>
            <polygon id="Fill-10" fill="#FF9A0B" points="0 34.9895 153.68673 34.9895 153.68673 34.0105 0 34.0105"></polygon>
            <polygon id="Fill-11" fill="#FF9A0B" points="2.27373675e-13 51.9895 130.008747 51.9895 130.008747 51.0105 2.27373675e-13 51.0105"></polygon>
            <polygon id="Fill-12" fill="#FF9A0B" points="0 68.9895 165.83844 68.9895 165.83844 68.0105 0 68.0105"></polygon>
            <polygon id="Fill-13" fill="#FF9A0B" points="2.27373675e-13 85.9895 109.777936 85.9895 109.777936 85.0105 2.27373675e-13 85.0105"></polygon>
            <polygon id="Fill-14" fill="#FF9A0B" points="1.13686838e-13 104.6145 47.4683593 104.6145 47.4683593 103.6355 1.13686838e-13 103.6355"></polygon>
        </g>
        <g id="Group" transform="translate(20.000000, 19.903621)" fill="#242A2E" font-family="Avenir-Medium, Avenir" font-size="8" font-weight="400">
            <text id="User-interface-design" letter-spacing="0.0242">
                <tspan x="0" y="8">U</tspan>
                <tspan x="5.6562" y="8" letter-spacing="0.069">s</tspan>
                <tspan x="9.2772" y="8" letter-spacing="0.0986">e</tspan>
                <tspan x="13.8238" y="8" letter-spacing="-0.0838">r</tspan>
                <tspan x="16.7" y="8" letter-spacing="0.069"> i</tspan>
                <tspan x="20.982" y="8" letter-spacing="0.1042">n</tspan>
                <tspan x="25.5342" y="8" letter-spacing="-0.047">t</tspan>
                <tspan x="28.4472" y="8" letter-spacing="0.0978">e</tspan>
                <tspan x="32.993" y="8" letter-spacing="0.289">r</tspan>
                <tspan x="36.242" y="8" letter-spacing="0.0186">f</tspan>
                <tspan x="38.9246" y="8" letter-spacing="0.085">a</tspan>
                <tspan x="43.1616" y="8" letter-spacing="0.0626">c</tspan>
                <tspan x="47.0802" y="8" letter-spacing="-0.083">e</tspan>
                <tspan x="51.4452" y="8" letter-spacing="0.069"> </tspan>
                <tspan x="53.7382" y="8" letter-spacing="0.0986">d</tspan>
                <tspan x="58.7248" y="8" letter-spacing="0.069">e</tspan>
                <tspan x="63.2418" y="8" letter-spacing="0.045">s</tspan>
                <tspan x="66.8388" y="8" letter-spacing="0.0266">i</tspan>
                <tspan x="68.7854" y="8" letter-spacing="0.0898">g</tspan>
                <tspan x="73.7632" y="8" letter-spacing="0.069">n</tspan>
            </text>
            <text id="Product-design" letter-spacing="0.0328">
                <tspan x="0" y="25">P</tspan>
                <tspan x="4.7768" y="25" letter-spacing="-0.0504">r</tspan>
                <tspan x="7.5424" y="25" letter-spacing="0.0384">o</tspan>
                <tspan x="12.3328" y="25" letter-spacing="0.0632">d</tspan>
                <tspan x="17.284" y="25" letter-spacing="0.072">u</tspan>
                <tspan x="21.804" y="25" letter-spacing="0.356">c</tspan>
                <tspan x="26.016" y="25" letter-spacing="-0.104">t</tspan>
                <tspan x="28.872" y="25" letter-spacing="0.072"> </tspan>
                <tspan x="31.168" y="25" letter-spacing="0.0776">d</tspan>
                <tspan x="36.1336" y="25" letter-spacing="0.0496">e</tspan>
                <tspan x="40.6312" y="25" letter-spacing="0.0232">s</tspan>
                <tspan x="44.2064" y="25" letter-spacing="0.0064">i</tspan>
                <tspan x="46.1328" y="25" letter-spacing="0.068">g</tspan>
                <tspan x="51.0888" y="25" letter-spacing="0.072">n</tspan>
            </text>
            <text id="User-experience-design" letter-spacing="-0.0038">
                <tspan x="0" y="42">U</tspan>
                <tspan x="5.6282" y="42" letter-spacing="0.0434">s</tspan>
                <tspan x="9.2236" y="42" letter-spacing="0.073">e</tspan>
                <tspan x="13.7446" y="42" letter-spacing="-0.111">r</tspan>
                <tspan x="16.5936" y="42" letter-spacing="0.073"> </tspan>
                <tspan x="18.8906" y="42" letter-spacing="-0.0646">e</tspan>
                <tspan x="23.274" y="42" letter-spacing="0.0922">x</tspan>
                <tspan x="27.5182" y="42" letter-spacing="0.0546">p</tspan>
                <tspan x="32.4608" y="42" letter-spacing="0.073">e</tspan>
                <tspan x="36.9818" y="42" letter-spacing="-0.0166">r</tspan>
                <tspan x="39.9252" y="42" letter-spacing="0.0338">i</tspan>
                <tspan x="41.879" y="42" letter-spacing="0.073">e</tspan>
                <tspan x="46.4" y="42" letter-spacing="0.0394">n</tspan>
                <tspan x="50.8874" y="42" letter-spacing="0.0338">c</tspan>
                <tspan x="54.7772" y="42" letter-spacing="-0.1102">e</tspan>
                <tspan x="59.115" y="42" letter-spacing="0.073"> d</tspan>
                <tspan x="66.373" y="42" letter-spacing="0.0426">e</tspan>
                <tspan x="70.8636" y="42" letter-spacing="0.0162">s</tspan>
                <tspan x="74.4318" y="42" letter-spacing="-0.0014">i</tspan>
                <tspan x="76.3504" y="42" letter-spacing="0.0626">g</tspan>
                <tspan x="81.301" y="42" letter-spacing="0.073">n</tspan>
            </text>
            <text id="Brand-design" letter-spacing="0.1122">
                <tspan x="0" y="59">B</tspan>
                <tspan x="5.1522" y="59" letter-spacing="0.0226">r</tspan>
                <tspan x="8.1348" y="59" letter-spacing="0.1002">a</tspan>
                <tspan x="12.387" y="59" letter-spacing="0.069">n</tspan>
                <tspan x="16.904" y="59" letter-spacing="-0.083">d</tspan>
                <tspan x="21.709" y="59" letter-spacing="0.069"> </tspan>
                <tspan x="24.002" y="59" letter-spacing="0.0978">d</tspan>
                <tspan x="28.9878" y="59" letter-spacing="0.069">e</tspan>
                <tspan x="33.5048" y="59" letter-spacing="0.0442">s</tspan>
                <tspan x="37.101" y="59" letter-spacing="0.0266">i</tspan>
                <tspan x="39.0476" y="59" letter-spacing="0.0906">g</tspan>
                <tspan x="44.0262" y="59" letter-spacing="0.069">n</tspan>
            </text>
            <text id="Responsive-design" letter-spacing="0.002">
                <tspan x="0" y="76">R</tspan>
                <tspan x="4.89" y="76" letter-spacing="0.0636">e</tspan>
                <tspan x="9.4016" y="76" letter-spacing="0.0756">s</tspan>
                <tspan x="13.0292" y="76" letter-spacing="0.0564">p</tspan>
                <tspan x="17.9736" y="76" letter-spacing="0.07">on</tspan>
                <tspan x="27.3136" y="76" letter-spacing="0.038">s</tspan>
                <tspan x="30.9036" y="76" letter-spacing="0.07">i</tspan>
                <tspan x="32.8936" y="76" letter-spacing="-0.0404">v</tspan>
                <tspan x="36.8532" y="76" letter-spacing="-0.09">e</tspan>
                <tspan x="41.2112" y="76" letter-spacing="0.07"> </tspan>
                <tspan x="43.5052" y="76" letter-spacing="0.0916">d</tspan>
                <tspan x="48.4848" y="76" letter-spacing="0.0636">e</tspan>
                <tspan x="52.9964" y="76" letter-spacing="0.038">s</tspan>
                <tspan x="56.5864" y="76" letter-spacing="0.0196">i</tspan>
                <tspan x="58.526" y="76" letter-spacing="0.0828">g</tspan>
                <tspan x="63.4968" y="76" letter-spacing="0.07">n</tspan>
            </text>
            <text id="Style-Guide-(Design-Systems)" letter-spacing="0.0852">
                <tspan x="0" y="93">S</tspan>
                <tspan x="4.5332" y="93" letter-spacing="0.3092">t</tspan>
                <tspan x="7.8024" y="93" letter-spacing="0.2116">y</tspan>
                <tspan x="12.014" y="93" letter-spacing="0.21">l</tspan>
                <tspan x="14.144" y="93" letter-spacing="0.05">e </tspan>
                <tspan x="20.916" y="93" letter-spacing="0.1972">G</tspan>
                <tspan x="27.3372" y="93" letter-spacing="0.2012">u</tspan>
                <tspan x="31.9864" y="93" letter-spacing="0.1756">i</tspan>
                <tspan x="34.082" y="93" letter-spacing="0.2316">d</tspan>
                <tspan x="39.2016" y="93" letter-spacing="0.05">e </tspan>
                <tspan x="45.9736" y="93" letter-spacing="0.1804">(</tspan>
                <tspan x="48.378" y="93" letter-spacing="0.2052">D</tspan>
                <tspan x="54.5112" y="93" letter-spacing="0.2036">e</tspan>
                <tspan x="59.1628" y="93" letter-spacing="0.178">s</tspan>
                <tspan x="62.8928" y="93" letter-spacing="0.1596">i</tspan>
                <tspan x="64.9724" y="93" letter-spacing="0.2228">g</tspan>
                <tspan x="70.0832" y="93" letter-spacing="0.05">n </tspan>
                <tspan x="76.8552" y="93" letter-spacing="0.0356">S</tspan>
                <tspan x="81.3388" y="93" letter-spacing="0.19">y</tspan>
                <tspan x="85.5288" y="93" letter-spacing="0.334">s</tspan>
                <tspan x="89.4148" y="93" letter-spacing="0.086">t</tspan>
                <tspan x="92.4608" y="93" letter-spacing="0.2308">e</tspan>
                <tspan x="97.1396" y="93" letter-spacing="0.2076">m</tspan>
                <tspan x="104.1632" y="93" letter-spacing="-0.43">s</tspan>
                <tspan x="107.2852" y="93" letter-spacing="0.05">)</tspan>
            </text>
            <text id="Virtual-reality" letter-spacing="0.181">
                <tspan x="0" y="110">V</tspan>
                <tspan x="5.077" y="110" letter-spacing="0.065">i</tspan>
                <tspan x="7.062" y="110" letter-spacing="0.2954">r</tspan>
                <tspan x="10.3174" y="110" letter-spacing="-0.0334">t</tspan>
                <tspan x="13.244" y="110" letter-spacing="0.069">u</tspan>
                <tspan x="17.761" y="110" letter-spacing="0.0762">a</tspan>
                <tspan x="21.9892" y="110" letter-spacing="-0.0838">l</tspan>
                <tspan x="23.8254" y="110" letter-spacing="0.069"> </tspan>
                <tspan x="26.1184" y="110" letter-spacing="0.001">r</tspan>
                <tspan x="28.9354" y="110" letter-spacing="0.0426">e</tspan>
                <tspan x="33.426" y="110" letter-spacing="0.0754">a</tspan>
                <tspan x="37.6534" y="110" letter-spacing="0.0346">l</tspan>
                <tspan x="39.608" y="110" letter-spacing="0.1202">i</tspan>
                <tspan x="41.6482" y="110" letter-spacing="0.1762">t</tspan>
                <tspan x="44.7844" y="110" letter-spacing="0.069">y</tspan>
            </text>
        </g>
    </g>
</svg>