<?xml version="1.0" encoding="UTF-8"?>
<svg width="209px" height="190px" viewBox="0 0 209 190" version="1.1" xmlns="http://www.w3.org/2000/svg" xmlns:xlink="http://www.w3.org/1999/xlink">
    <title>skills</title>
    <g id="skills" stroke="none" stroke-width="1" fill="none" fill-rule="evenodd">
        <rect id="Rectangle" fill="#F9FAFB" x="0" y="0" width="209" height="190" rx="3"></rect>
        <g id="Group" transform="translate(20.000000, 35.903621)">
            <polygon id="Fill-1" fill="#D0D7DE" points="0 0.9895 169 0.9895 169 0.0105 0 0.0105"></polygon>
            <polygon id="Fill-8" fill="#FF9A0B" points="2.27373675e-13 0.9895 139.862343 0.9895 139.862343 0.0105 2.27373675e-13 0.0105"></polygon>
        </g>
        <text id="User-interface-design" font-family="Avenir-Medium, Avenir" font-size="10" font-weight="400" fill="#242A2E">
            <tspan x="20" y="27.9036215">User interface design</tspan>
        </text>
        <g id="Group-2" transform="translate(20.000000, 57.903621)">
            <polygon id="Fill-2" fill="#D0D7DE" points="0 0.9895 169 0.9895 169 0.0105 0 0.0105"></polygon>
            <polygon id="Fill-9" fill="#FF9A0B" points="0 0.9895 164.653681 0.9895 164.653681 0.0105 0 0.0105"></polygon>
        </g>
        <text id="Product-design" font-family="Avenir-Medium, Avenir" font-size="10" font-weight="400" fill="#242A2E">
            <tspan x="20" y="49.9036215">Product design</tspan>
        </text>
        <g id="Group-3" transform="translate(20.000000, 79.903621)">
            <polygon id="Fill-3" fill="#D0D7DE" points="0 0.9895 169 0.9895 169 0.0105 0 0.0105"></polygon>
            <polygon id="Fill-10" fill="#FF9A0B" points="0 0.9895 153.68673 0.9895 153.68673 0.0105 0 0.0105"></polygon>
        </g>
        <text id="User-experience-design" font-family="Avenir-Medium, Avenir" font-size="10" font-weight="400" fill="#242A2E">
            <tspan x="20" y="71.9036215">User experience design</tspan>
        </text>
        <g id="Group-4" transform="translate(20.000000, 101.903621)">
            <polygon id="Fill-4" fill="#D0D7DE" points="0 0.9895 169 0.9895 169 0.0105 0 0.0105"></polygon>
            <polygon id="Fill-11" fill="#FF9A0B" points="3.41060513e-13 0.9895 130.008747 0.9895 130.008747 0.0105 3.41060513e-13 0.0105"></polygon>
        </g>
        <text id="Brand-design" font-family="Avenir-Medium, Avenir" font-size="10" font-weight="400" fill="#242A2E">
            <tspan x="20" y="93.9036215">Brand design</tspan>
        </text>
        <g id="Group-5" transform="translate(20.000000, 123.903621)">
            <polygon id="Fill-5" fill="#D0D7DE" points="0 0.9895 169 0.9895 169 0.0105 0 0.0105"></polygon>
            <polygon id="Fill-12" fill="#FF9A0B" points="0 0.9895 165.83844 0.9895 165.83844 0.0105 0 0.0105"></polygon>
        </g>
        <text id="Responsive-design" font-family="Avenir-Medium, Avenir" font-size="10" font-weight="400" fill="#242A2E">
            <tspan x="20" y="115.903621">Responsive design</tspan>
        </text>
        <g id="Fill-15" transform="translate(20.000000, 145.903621)">
            <polygon id="Fill-6" fill="#D0D7DE" points="0 0.9895 169 0.9895 169 0.0105 0 0.0105"></polygon>
            <polygon id="Fill-13" fill="#FF9A0B" points="2.27373675e-13 0.9895 109.777936 0.9895 109.777936 0.0105 2.27373675e-13 0.0105"></polygon>
        </g>
        <text id="Style-Guide-(Design-Systems)" font-family="Avenir-Medium, Avenir" font-size="10" font-weight="400" fill="#242A2E">
            <tspan x="20" y="137.903621">Style Guide (Design Systems)</tspan>
        </text>
        <g id="Fill-16" transform="translate(20.000000, 167.903621)">
            <polygon id="Fill-7" fill="#D0D7DE" points="0 0.9895 169 0.9895 169 0.0105 0 0.0105"></polygon>
            <polygon id="Fill-14" fill="#FF9A0B" points="2.27373675e-13 0.9895 47.4683593 0.9895 47.4683593 0.0105 2.27373675e-13 0.0105"></polygon>
        </g>
        <text id="Virtual-reality" font-family="Avenir-Medium, Avenir" font-size="10" font-weight="400" fill="#242A2E">
            <tspan x="20" y="159.903621">Virtual reality</tspan>
        </text>
    </g>
</svg>