<?xml version="1.0" encoding="UTF-8"?>
<svg width="209px" height="190px" viewBox="0 0 209 190" version="1.1" xmlns="http://www.w3.org/2000/svg" xmlns:xlink="http://www.w3.org/1999/xlink">
    <title>tools</title>
    <g id="tools" stroke="none" stroke-width="1" fill="none" fill-rule="evenodd">
        <rect id="Rectangle" fill="#F9FAFB" x="0" y="0" width="209" height="190" rx="3"></rect>
        <g id="Group" transform="translate(20.000000, 34.904921)">
            <polygon id="Fill-1" fill="#D0D7DE" points="0 0.9895 169 0.9895 169 0.0105 0 0.0105"></polygon>
            <polygon id="Fill-7" fill="#FF9A0B" points="0 0.9895 164 0.9895 164 0.0105 0 0.0105"></polygon>
        </g>
        <text id="Pen-and-Paper" font-family="Helvetica" font-size="10" font-weight="normal" fill="#000000">
            <tspan x="20" y="27.9049215">Pen and Paper</tspan>
        </text>
        <g id="Group-2" transform="translate(20.000000, 57.904921)">
            <polygon id="Fill-2" fill="#D0D7DE" points="0 0.9895 169 0.9895 169 0.0105 0 0.0105"></polygon>
            <polygon id="Fill-8" fill="#FF9A0B" points="0 0.9895 164 0.9895 164 0.0105 0 0.0105"></polygon>
        </g>
        <text id="Sketch" font-family="Helvetica" font-size="10" font-weight="normal" fill="#000000">
            <tspan x="20" y="50.9049215">Sketch</tspan>
        </text>
        <g id="Group-3" transform="translate(20.000000, 80.904921)">
            <polygon id="Fill-3" fill="#D0D7DE" points="0 0.9895 169 0.9895 169 0.0105 0 0.0105"></polygon>
            <polygon id="Fill-9" fill="#FF9A0B" points="0 0.9895 135 0.9895 135 0.0105 0 0.0105"></polygon>
        </g>
        <text id="Figma-" font-family="Helvetica" font-size="10" font-weight="normal" fill="#000000">
            <tspan x="20" y="73.9049215">Figma </tspan>
        </text>
        <g id="Group-4" transform="translate(20.000000, 103.904921)">
            <polygon id="Fill-4" fill="#D0D7DE" points="0 0.9895 169 0.9895 169 0.0105 0 0.0105"></polygon>
            <polygon id="Fill-10" fill="#FF9A0B" points="0 0.9895 86 0.9895 86 0.0105 0 0.0105"></polygon>
        </g>
        <text id="Principle-App-(Interactions)" font-family="Helvetica" font-size="10" font-weight="normal">
            <tspan x="20" y="96.9049215" fill="#000000">Principle App </tspan>
            <tspan x="81.1523438" y="96.9049215" fill="#666666">(Interactions)</tspan>
        </text>
        <g id="Group-5" transform="translate(20.000000, 126.904921)">
            <polygon id="Fill-5" fill="#D0D7DE" points="0 0.9895 169 0.9895 169 0.0105 0 0.0105"></polygon>
            <polygon id="Fill-11" fill="#FF9A0B" points="0 0.9895 125 0.9895 125 0.0105 0 0.0105"></polygon>
        </g>
        <text id="Adobe-(Photoshop,-Il" font-family="Helvetica" font-size="10" font-weight="normal" fill="#000000">
            <tspan x="20" y="119.904921">Adobe (Photoshop, Illustrator)</tspan>
        </text>
        <g id="Group-6" transform="translate(20.000000, 149.904921)">
            <polygon id="Fill-6" fill="#D0D7DE" points="0 0.9895 169 0.9895 169 0.0105 0 0.0105"></polygon>
            <polygon id="Fill-12" fill="#FF9A0B" points="0 0.9895 141 0.9895 141 0.0105 0 0.0105"></polygon>
        </g>
        <text id="Visual-Studio-Code" font-family="Helvetica" font-size="10" font-weight="normal" fill="#000000">
            <tspan x="20" y="142.904921">Visual Studio Code</tspan>
        </text>
    </g>
</svg>